<?xml version="1.0" standalone="no"?>
<!DOCTYPE svg PUBLIC "-//W3C//DTD SVG 20010904//EN"
 "http://www.w3.org/TR/2001/REC-SVG-20010904/DTD/svg10.dtd">
<svg version="1.0" xmlns="http://www.w3.org/2000/svg"
 width="1000.000000pt" height="1000.000000pt" viewBox="0 0 1000.000000 1000.000000"
 preserveAspectRatio="xMidYMid meet">

<g transform="translate(0.000000,1000.000000) scale(0.100000,-0.100000)"
fill="#000000" stroke="none">
<path d="M0 5000 l0 -5000 5000 0 5000 0 0 5000 0 5000 -5000 0 -5000 0 0
-5000z m5705 495 c84 -22 105 -45 105 -112 0 -29 -4 -53 -9 -53 -5 0 -40 15
-77 32 -171 80 -324 27 -324 -113 0 -87 43 -123 255 -214 126 -53 184 -128
192 -245 7 -97 -21 -164 -99 -234 -67 -61 -133 -92 -172 -82 -30 7 -56 52 -56
95 0 27 4 30 43 36 23 4 61 16 84 26 51 25 83 83 83 152 0 81 -57 128 -246
202 -45 18 -97 44 -116 59 -73 55 -113 182 -88 275 14 53 86 133 150 166 37
20 61 24 130 25 47 0 113 -7 145 -15z m1925 -40 l0 -55 -185 0 -185 0 0 -450
0 -450 -55 0 -55 0 0 450 0 450 -190 0 -190 0 0 55 0 55 430 0 430 0 0 -55z
m-4690 -455 l0 -500 -55 0 -55 0 0 225 0 225 -272 0 -273 0 3 55 4 55 269 0
269 0 0 220 0 220 55 0 55 0 0 -500z m841 373 c45 -71 128 -198 184 -283 246
-375 371 -566 378 -577 6 -10 -7 -13 -56 -13 l-64 0 -34 53 c-18 28 -84 130
-146 225 l-114 172 -233 0 -234 0 -147 -225 -147 -225 -64 0 -64 0 118 179
c64 98 212 323 327 500 116 176 211 321 211 321 1 0 39 -57 85 -127z m1039
111 c71 -21 124 -56 159 -104 33 -46 56 -128 48 -170 -4 -18 -1 -32 7 -39 8
-7 19 -25 26 -42 8 -18 18 -28 26 -25 7 3 18 -3 24 -12 8 -13 9 -11 4 11 -9
39 4 33 23 -10 22 -50 25 -69 10 -54 -34 34 -57 -13 -34 -69 11 -25 12 -42 5
-60 l-9 -25 -25 28 c-13 16 -28 25 -34 22 -5 -3 -17 10 -27 29 -9 20 -20 36
-24 36 -4 0 -14 3 -23 6 -11 4 -16 0 -16 -12 -1 -18 -1 -18 -12 1 -6 11 -12
21 -12 22 -1 1 -40 -9 -86 -23 -47 -13 -102 -29 -123 -35 l-37 -10 247 -215
c137 -118 250 -219 252 -225 2 -6 -20 -9 -58 -7 l-61 3 -331 275 -330 275 163
6 c90 3 177 11 194 16 113 38 160 106 134 198 -27 98 -97 125 -322 125 l-158
0 0 50 0 50 173 0 c129 0 187 -4 227 -16z m1660 -484 l0 -500 -55 0 -55 0 0
225 0 225 -273 0 -272 0 -3 55 -3 55 276 0 275 0 0 220 0 220 55 0 55 0 0
-500z m210 0 l0 -500 -55 0 -55 0 0 500 0 500 55 0 55 0 0 -500z m-1300 -985
c0 -8 -4 -15 -10 -15 -5 0 -10 7 -10 15 0 8 5 15 10 15 6 0 10 -7 10 -15z
m550 -1379 c0 -3 -4 -8 -10 -11 -5 -3 -10 -1 -10 4 0 6 5 11 10 11 6 0 10 -2
10 -4z"/>
<path d="M3617 5193 l-76 -118 151 -3 c83 -1 153 -1 155 2 4 3 -144 236 -151
236 -1 0 -37 -53 -79 -117z"/>
</g>
</svg>
